# xmcd
#
# Track frame offsets:
#	150
#	11975
#	26662
#	40025
#	54075
#	67362
#	80450
#	93225
#	107212
#	121037
#	134550
#	148125
#	161825
#	174887
#	187800
#	200525
#	213187
#	227725
#	242500
#	255900
#	269962
#	286400
#	301500
#	316537
#
# Disc length: 4418 seconds
#
# Revision: 1
# Processed by: cddbd v1.5.1PL0 Copyright (c) Steve Scherf et al.
# Submitted via: audiograbber 1.83.01
#
DISCID=49114018
DTITLE=Various Artist - Clifford Hayes and the Louisville Jug Bands - Vol. 1
DYEAR=1900
DGENRE=
TTITLE0=Sara Martin and Her Jug Band - Blue Devil Blues
TTITLE1=Sara Martin and Her Jug Band - Jug Band Blues (72825)
TTITLE2=Sara Martin and Her Jug Band - Jug Band Blues (72831)
TTITLE3=Sara Martin and Her Jug Band - Don't You Quit Me Blues
TTITLE4=Sara Martin and Her Jug Band - I Got the Crying Blues
TTITLE5=Sara Martin and Her Jug Band - I Ain't Got No Man
TTITLE6=Sara Martin and Her Jug Band - Blues, Please Go Away
TTITLE7=Sara Martin and Her Jug Band - Come Back Daddy and Ease My Aching Heart
TTITLE8=Sara Martin and Her Jug Band - I'm Gonna Be A Lovin' Old Soul
TTITLE9=Sara Martin and Her Jug Band - Papa, Papa Blues
TTITLE10=Whistler and His Jug Band - Chicago Flip
TTITLE11=Whistler and His Jug Band - Jerry O'Mine
TTITLE12=Whistler and His Jug Band - Jail House Blues
TTITLE13=Whistler and His Jug Band - I'm A Jazz Baby
TTITLE14=Old Southern Jug Band - Hatchet Head Blues
TTITLE15=Old Southern Jug Band - Blues, Just Blues, That's All
TTITLE16=Cliffors's Louisville Jug Band - Louisville Bluezees
TTITLE17=Clifford's Louisville Jug Band - Wakin' Up Blues
TTITLE18=Clifford's Louisville Jug Band - I Don't Want You Blues
TTITLE19=Clifford's Louisville Jug Band - Get It Fixed Blues
TTITLE20=Clifford's Louisville Jug Band - Mammy O'Mine Blues
TTITLE21=Clifford's Louisville Jug Band - Struttin' the Blues
TTITLE22=Clifford's Louisville Jug Band - Dancing Blues
TTITLE23=Dixieland Jug Blowers - Boodle-Am-Shake (Take 1)
EXTD=
EXTT0=
EXTT1=
EXTT2=
EXTT3=
EXTT4=
EXTT5=
EXTT6=
EXTT7=
EXTT8=
EXTT9=
EXTT10=
EXTT11=
EXTT12=
EXTT13=
EXTT14=
EXTT15=
EXTT16=
EXTT17=
EXTT18=
EXTT19=
EXTT20=
EXTT21=
EXTT22=
EXTT23=
PLAYORDER=
